{"title":"Oprah.Winfrey.2010.09.13.Farewell.Season.Premiere.With.John.Trav","uid":6440061,"size":1170654859,"categoryP":"video","categoryS":"tv_shows","magnet":"?xt=urn:btih:329376b1b2c8f8b3757372db249596f71f6fad93&amp;dn=Oprah.Winfrey.2010.09.13.Farewell.Season.Premiere.With.John.Trav&amp;tr=udp%3A%2F%2Ftracker.openbittorrent.com%3A80&amp;tr=udp%3A%2F%2Fopen.demonii.com%3A1337&amp;tr=udp%3A%2F%2Ftracker.coppersurfer.tk%3A6969&amp;tr=udp%3A%2F%2Fexodus.desync.com%3A6969","seeders":0,"leechers":0,"uploader":"DBaum23","files":2,"time":1306950112,"description":"Oprah.Winfrey.2010.09.13.Farewell.Season.Premiere.With.John.Travolta.720p.x264-Nile\n\nGeneral\nFormat                           : Matroska\nFile size                        : 1.09 GiB\nDuration                         : 42mn 41s\nOverall bit rate                 : 3 657 Kbps\nEncoded date                     : UTC 2011-05-28 12:58:45\n\nVideo\nID                               : 2\nFormat                           : AVC\nFormat/Info                      : Advanced Video Codec\nFormat profile                   : &lt;a class=&quot;__cf_email__&quot; href=&quot;/cdn-cgi/l/email-protection&quot; data-cfemail=&quot;5119383639111d627f60&quot;&gt;[email&amp;#160;protected]&lt;/a&gt;&lt;script cf-hash='f9e31' type=&quot;text/javascript&quot;&gt;\n/* &lt;![CDATA[ */!function(){try{var t=&quot;currentScript&quot;in document?document.currentScript:function(){for(var t=document.getElementsByTagName(&quot;script&quot;),e=t.length;e--;)if(t[e].getAttribute(&quot;cf-hash&quot;))return t[e]}();if(t&amp;&amp;t.previousSibling){var e,r,n,i,c=t.previousSibling,a=c.getAttribute(&quot;data-cfemail&quot;);if(a){for(e=&quot;&quot;,r=parseInt(a.substr(0,2),16),n=2;a.length-n;n+=2)i=parseInt(a.substr(n,2),16)^r,e+=String.fromCharCode(i);e=document.createTextNode(e),c.parentNode.replaceChild(e,c)}}}catch(u){}}();/* ]]&gt; */&lt;/script&gt;\nFormat settings, CABAC           : No\nFormat settings, ReFrames        : 1 frame\nMuxing mode                      : Container profile=&lt;a class=&quot;__cf_email__&quot; href=&quot;/cdn-cgi/l/email-protection&quot; data-cfemail=&quot;b6e3d8ddd8d9c1d8f6859887&quot;&gt;[email&amp;#160;protected]&lt;/a&gt;&lt;script cf-hash='f9e31' type=&quot;text/javascript&quot;&gt;\n/* &lt;![CDATA[ */!function(){try{var t=&quot;currentScript&quot;in document?document.currentScript:function(){for(var t=document.getElementsByTagName(&quot;script&quot;),e=t.length;e--;)if(t[e].getAttribute(&quot;cf-hash&quot;))return t[e]}();if(t&amp;&amp;t.previousSibling){var e,r,n,i,c=t.previousSibling,a=c.getAttribute(&quot;data-cfemail&quot;);if(a){for(e=&quot;&quot;,r=parseInt(a.substr(0,2),16),n=2;a.length-n;n+=2)i=parseInt(a.substr(n,2),16)^r,e+=String.fromCharCode(i);e=document.createTextNode(e),c.parentNode.replaceChild(e,c)}}}catch(u){}}();/* ]]&gt; */&lt;/script&gt;\nCodec ID                         : V_MPEG4/ISO/AVC\nDuration                         : 42mn 38s\nBit rate                         : 3 328 Kbps\nWidth                            : 1 280 pixels\nHeight                           : 720 pixels\nDisplay aspect ratio             : 16:9\nFrame rate                       : 29.970 fps\nStandard                         : NTSC\nResolution                       : 24 bits\nColorimetry                      : 4:2:0\nScan type                        : Progressive\nBits/(Pixel*Frame)               : 0.120\nStream size                      : 1 015 MiB (91%)\ncolour_primaries                 : BT.709-5, BT.1361, IEC 61966-2-4, SMPTE RP177\ntransfer_characteristics         : BT.709-5, BT.1361\nmatrix_coefficients              : BT.709-5, BT.1361, IEC 61966-2-4 709, SMPTE RP177\n\nAudio\nID                               : 1\nFormat                           : MPEG Audio\nFormat version                   : Version 1\nFormat profile                   : Layer 3\nCodec ID                         : A_MPEG/L3\nCodec ID/Hint                    : MP3\nDuration                         : 42mn 41s\nBit rate mode                    : Constant\nBit rate                         : 256 Kbps\nChannel(s)                       : 2 channels\nSampling rate                    : 48.0 KHz\nResolution                       : 16 bits\nStream size                      : 78.2 MiB (7%)\n &lt;a href=&quot;\nhttp://www.oprah.com/showinfo/Oprahs-Farewell-Season-Premiere-with-Special-Guest-John-Travolta&quot; rel=&quot;nofollow&quot; target=&quot;_NEW&quot;&gt;\nhttp://www.oprah.com/showinfo/Oprahs-Farewell-Season-Premiere-with-Special-Guest-John-Travolta&lt;/a&gt;","torrent":{"xt":"urn:btih:329376b1b2c8f8b3757372db249596f71f6fad93","amp;dn":"Oprah.Winfrey.2010.09.13.Farewell.Season.Premiere.With.John.Trav","amp;tr":["udp%3A%2F%2Ftracker.openbittorrent.com%3A80","udp%3A%2F%2Fopen.demonii.com%3A1337","udp%3A%2F%2Ftracker.coppersurfer.tk%3A6969","udp%3A%2F%2Fexodus.desync.com%3A6969"],"infoHash":"329376b1b2c8f8b3757372db249596f71f6fad93","infoHashBuffer":{"type":"Buffer","data":[50,147,118,177,178,200,248,179,117,115,114,219,36,149,150,247,31,111,173,147]},"announce":[],"urlList":[]}}